<svg xmlns="http://www.w3.org/2000/svg" viewBox="0 0 32 32" width="32" height="32">
  <defs>
    <linearGradient id="bg" x1="0%" y1="0%" x2="100%" y2="100%">
      <stop offset="0%" style="stop-color:#6366f1"/>
      <stop offset="50%" style="stop-color:#8b5cf6"/>
      <stop offset="100%" style="stop-color:#06b6d4"/>
    </linearGradient>
  </defs>
  <rect width="32" height="32" rx="8" ry="8" fill="url(#bg)"/>
  <!-- Graduation cap: flat top (square) + brim -->
  <path fill="#fff" d="M16 7L6 11.5v2l10 4.5 10-4.5v-2L16 7zm0 2.5l6.5 2.9-6.5 2.9-6.5-2.9L16 9.5zM7 15v3c0 .5.4 1 1 1h16c.6 0 1-.5 1-1v-3l-9 4-9-4z"/>
  <!-- Tassel -->
  <circle cx="23" cy="11.5" r="1.5" fill="#fff"/>
  <path fill="#fff" d="M23 11.5v5c0 .5-.5 1-1 1s-1-.5-1-1v-4"/>
</svg>